<svg xmlns="http://www.w3.org/2000/svg" width="960" height="340" viewBox="0 0 960 340" role="img" aria-labelledby="title desc">
<title id="title">Моделирование амбулаторной помощи</title>
<desc id="desc">Посещения 1 и 2 связаны через partOf с картой. Через episodeOfCare оба связаны с СПО Диабет, а посещение 2 также с СПО Боль в спине.</desc>
<defs><marker id="arrow" viewBox="0 0 10 10" refX="9" refY="5" markerWidth="7" markerHeight="7" orient="auto-start-reverse"><path d="M 0 0 L 10 5 L 0 10 z" fill="#506477"/></marker></defs>
<rect width="960" height="340" fill="white"/>
<g font-family="Arial, sans-serif" font-size="16" fill="#20364a" text-anchor="middle">
<text x="145" y="32" font-weight="bold">Учётный контекст</text><text x="465" y="32" font-weight="bold">Посещения</text><text x="815" y="32" font-weight="bold">Клинические СПО</text>
<g stroke="#506477" stroke-width="1.5" fill="none" marker-end="url(#arrow)">
<path d="M365 115 L255 166"/><path d="M365 250 L255 210"/>
<path d="M565 115 L695 115"/><path d="M565 250 L695 135"/><path d="M565 250 L695 250"/>
</g>
<g font-size="13"><text x="303" y="118">partOf</text><text x="303" y="258">partOf</text><text x="630" y="101">episodeOfCare</text><text x="621" y="174">episodeOfCare</text><text x="630" y="274">episodeOfCare</text></g>
<rect x="35" y="145" width="220" height="85" rx="8" fill="#eaf2fb" stroke="#6486a8"/>
<text x="145" y="170">Амбулаторная карта</text><text x="145" y="193">№ 5499-16</text><text x="145" y="216" font-size="13">Encounter</text>
<rect x="365" y="80" width="200" height="70" rx="8" fill="#eaf2fb" stroke="#6486a8"/>
<text x="465" y="109">Посещение 1</text><text x="465" y="134" font-size="13">Encounter</text>
<rect x="365" y="215" width="200" height="70" rx="8" fill="#eaf2fb" stroke="#6486a8"/>
<text x="465" y="244">Посещение 2</text><text x="465" y="269" font-size="13">Encounter</text>
<rect x="695" y="80" width="240" height="70" rx="8" fill="#edf6ed" stroke="#729873"/>
<text x="815" y="109">СПО «Диабет»</text><text x="815" y="134" font-size="13">EpisodeOfCare</text>
<rect x="695" y="215" width="240" height="70" rx="8" fill="#edf6ed" stroke="#729873"/>
<text x="815" y="244">СПО «Боль в спине»</text><text x="815" y="269" font-size="13">EpisodeOfCare</text>
<text x="480" y="325" font-size="13">Проект RuCore для обсуждения — не утверждён</text>
</g></svg>